<?xml version="1.0" encoding="utf-8"?>
<!-- Generator: Adobe Illustrator 26.0.3, SVG Export Plug-In . SVG Version: 6.00 Build 0)  -->
<!DOCTYPE svg PUBLIC "-//W3C//DTD SVG 1.1//EN" "http://www.w3.org/Graphics/SVG/1.1/DTD/svg11.dtd" [
	<!ENTITY ns_extend "http://ns.adobe.com/Extensibility/1.0/">
	<!ENTITY ns_ai "http://ns.adobe.com/AdobeIllustrator/10.0/">
	<!ENTITY ns_graphs "http://ns.adobe.com/Graphs/1.0/">
	<!ENTITY ns_vars "http://ns.adobe.com/Variables/1.0/">
	<!ENTITY ns_imrep "http://ns.adobe.com/ImageReplacement/1.0/">
	<!ENTITY ns_sfw "http://ns.adobe.com/SaveForWeb/1.0/">
	<!ENTITY ns_custom "http://ns.adobe.com/GenericCustomNamespace/1.0/">
	<!ENTITY ns_adobe_xpath "http://ns.adobe.com/XPath/1.0/">
]>
<svg version="1.1" id="Слой_1" xmlns:x="&ns_extend;" xmlns:i="&ns_ai;" xmlns:graph="&ns_graphs;"
	 xmlns="http://www.w3.org/2000/svg" xmlns:xlink="http://www.w3.org/1999/xlink" x="0px" y="0px" width="405.1px" height="357.7px"
	 viewBox="0 0 405.1 357.7" style="enable-background:new 0 0 405.1 357.7;" xml:space="preserve">
<style type="text/css">
	.st0{fill:#FFFFFF;}
	.st1{fill:#689BD4;}
	.st2{opacity:0.1395;fill:#042B88;}
	.st3{opacity:0.144;fill:#042B88;}
	.st4{opacity:0.23;fill:#042B88;}
	.st5{fill:#CAA77A;}
	.st6{fill:#FFDB1F;}
	.st7{fill:#FFDBAF;}
	.st8{fill:#9D7B51;}
	.st9{fill:#251707;}
	.st10{fill:#D2D2D2;}
	.st11{fill:none;stroke:#2D1F04;stroke-width:2.5974;stroke-linecap:round;stroke-linejoin:round;stroke-miterlimit:10;}
	.st12{fill:none;stroke:#2D1F04;stroke-width:2.7728;stroke-linecap:round;stroke-linejoin:round;stroke-miterlimit:10;}
	.st13{fill:none;stroke:#2D1F04;stroke-width:2.6851;stroke-linecap:round;stroke-linejoin:round;stroke-miterlimit:10;}
	.st14{fill:none;stroke:#2D1F04;stroke-width:6.4991;stroke-linecap:round;stroke-linejoin:round;stroke-miterlimit:10;}
	.st15{fill:none;stroke:#2D1F04;stroke-width:2.7838;stroke-linecap:round;stroke-linejoin:round;stroke-miterlimit:10;}
	.st16{fill:none;stroke:#2D1F04;stroke-width:5.6661;stroke-linecap:round;stroke-linejoin:round;stroke-miterlimit:10;}
	.st17{fill:none;stroke:#9D7B51;stroke-width:3.0577;stroke-linecap:round;stroke-linejoin:round;stroke-miterlimit:10;}
	.st18{opacity:0.23;fill:#3F2719;}
	.st19{fill:#2D1F04;}
</style>
<metadata>
	<sfw  xmlns="&ns_sfw;">
		<slices></slices>
		<sliceSourceBounds  bottomLeftOrigin="true" height="357.7" width="405.1" x="752.5" y="95.1"></sliceSourceBounds>
	</sfw>
</metadata>
<g>
	<path class="st0" d="M37.9,306.7c1.8,1.9,3.7,3.9,5.6,5.9c14.6,15,34.7,23.2,52.4,29.3c9,3.5,18.6,6.6,28.7,9.2
		c14.8,4.1,28.1,6,44.5,6.1c3.4,0.2,6.7,0.2,10,0.3c3.8,0.1,7.6,0.2,11.4,0.2c36.6,0,70.2-6.5,97.2-18.9
		c33.7-15.4,57.2-39.5,70.1-71.7c3-7.5,5.3-16.1,6.8-25.5c0.3,0.3,1,1.1,1.1,0.7C401,95.7,278.3,33.7,278.2,33.9
		c-2.1-2.4-4.4-3.9-6.4-5.2c-0.1-0.1-0.2-0.1-0.3-0.2c-1.8-1.9-3.6-3.7-5.3-5.4l-0.1-0.1c-2.8-3.4-5.2-6-7.5-8.3
		c-0.2-0.2-0.3-0.3-0.5-0.5l-0.1-0.1l-0.1-0.1c-0.4-0.4-0.8-0.7-1.1-1.1c-6.9-7.1-11.3-7.1-12.8-7.1c-0.8,0-1.7,0.1-2.5,0.3
		c-0.7-0.5-1.4-1-2.1-1.5c-0.7-0.7-1.9-1.8-3.6-2.5c-0.9-0.5-1.8-0.9-2.7-1.1c-0.2-0.1-0.4-0.2-0.6-0.3c-1.2-0.5-2.4-0.8-3.6-0.8
		c-2.3,0-4.6,0.9-6.3,2.6c-0.2,0.2-0.3,0.3-0.5,0.5c-1.7-0.6-3.6-1-5.8-1.2c-0.2,0-0.5,0-0.7,0c-3.1,0-5.9,1.6-7.5,4.1
		c-0.7-0.1-1.3-0.1-2-0.1c-1.7,0-3.1,0.3-4.3,0.8c-0.1,0-0.2,0-0.2,0c-3.3,0.7-5.9,3.1-6.8,6.3c-0.4,1.4-0.5,2.8-0.2,4.1
		c-4.9,2.3-9.4,5.5-13.4,9.4l-2.9,0.1c-2.5,0.1-4.8,1.3-6.4,3c-19.4,4.2-36.1,13-49.8,26c-1.2,1.1-2.4,2.4-3.6,3.7
		c-6.2,6.4-12.1,14.1-17.9,23.4c-14.7,1.3-32.9,7.9-46.2,29.9c-1.2,1.4-2.2,3.2-3.1,5.5c-1.1,2.1-2.1,4.3-3,6.6
		c-1.4,1.9-2.3,4.2-2.6,6.8c-0.1,0.2-0.1,0.4-0.2,0.5c-0.6,0.6-1.3,1.2-1.9,1.8c-4.7,4.2-11.7,11.2-18.6,21.2
		c-4.7,5.5-8.7,11.8-11.9,18.8C5.5,188,1.2,202.5,0.2,217c-1,14.5,1.3,29,6.9,43.2C13,277.4,23.3,293,37.9,306.7z M392.1,237
		C392.1,237,392.1,237,392.1,237c-0.1,0-0.2,0-0.3,0C392,237,392.1,237,392.1,237z M385.2,177C385.2,177,385.2,177,385.2,177
		c0,0-0.1,0-0.1,0C385.1,177,385.2,177,385.2,177z M376.1,165.6C376.1,165.6,376.1,165.6,376.1,165.6
		C376.1,165.6,376.1,165.5,376.1,165.6C376.1,165.5,376.1,165.6,376.1,165.6z M375.5,130.2C375.5,130.2,375.6,130.2,375.5,130.2
		C375.5,130.2,375.5,130.2,375.5,130.2C375.5,130.2,375.5,130.2,375.5,130.2z M370.3,164.1C370.3,164.1,370.3,164.1,370.3,164.1
		C370.3,164.1,370.3,164.1,370.3,164.1C370.3,164.1,370.3,164.1,370.3,164.1z M364,171c0.2,0.1,0.4,0.3,0.6,0.4
		c-0.2,0.2-0.5,0.4-0.7,0.6c-0.1-0.5-0.2-0.9-0.3-1.4C363.7,170.8,363.8,170.9,364,171z M354.7,85C354.7,85,354.7,85.1,354.7,85
		c0,0-0.1,0-0.2,0C354.5,85.1,354.6,85,354.7,85z M342.7,95.5c-0.1,0-0.1,0-0.2,0c0,0,0,0,0,0C342.5,95.5,342.6,95.5,342.7,95.5z
		 M335.2,82.3c-0.1,0-0.2,0-0.3,0c-0.2,0-0.4,0-0.6,0C334.6,82.3,334.9,82.3,335.2,82.3z M312.5,39.9
		C312.5,39.9,312.5,39.9,312.5,39.9c-0.2,0-0.5,0-0.8,0C311.9,39.9,312.2,39.9,312.5,39.9z M300.6,29.3
		C300.7,29.3,300.7,29.3,300.6,29.3c-0.1,0-0.2,0-0.2,0C300.5,29.3,300.6,29.3,300.6,29.3z M287.7,40.8c-0.1,0-0.1,0-0.2,0
		c0,0-0.1,0-0.1,0C287.4,40.8,287.5,40.8,287.7,40.8z M281.3,52C281.3,52,281.3,52,281.3,52C281.3,52,281.3,52,281.3,52
		C281.3,52,281.3,52,281.3,52z M243.9,14.9c0.1,0,0.1,0,0.2,0C244.1,14.9,244,14.9,243.9,14.9C243.9,14.9,243.9,14.9,243.9,14.9z
		 M230.5,9.7C230.5,9.7,230.6,9.7,230.5,9.7c0,0-0.1,0-0.2,0C230.4,9.7,230.4,9.7,230.5,9.7z M206,14.9
		C206,14.9,206.1,14.9,206,14.9C206,14.9,206,14.9,206,14.9C205.9,14.9,206,14.9,206,14.9z M191.1,348.7c-0.2,0-0.5,0-0.7,0
		c-0.2,0-0.3,0-0.5,0C190.3,348.7,190.7,348.7,191.1,348.7z M106.1,91.5c0.3,0,0.6,0,0.8,0c-0.4,0-0.8,0-1.1,0
		C106,91.5,106.1,91.5,106.1,91.5z"/>
	<path class="st0" d="M394.2,225l-0.5-0.1c0,0-0.1-0.1-0.2-0.1c2.9-3.1,4.5-6.9,4.6-11.2c0-1.6-0.2-3.2-0.6-4.8c0,0,0,0,0,0
		c1.7-0.5,3.3-1.4,4.5-2.8c1.9-2,3-4.6,2.9-7.5c0-2.5-1-4.9-2.7-6.8c0.1-0.7,0.1-1.4,0.1-2.1c-0.2-2.9-1.4-5.5-3.5-7.4
		c-1.6-1.5-3.6-2.4-5.7-2.7c2.3-3.5,3.2-7.5,2.7-11.6c-0.1-1.1-0.4-2.1-0.7-3.1c1.6-0.9,3-2.1,4-3.7c1.4-2.3,1.9-5.1,1.3-7.8
		c-0.6-2.7-2.2-5.1-4.6-6.6c-1.4-0.9-2.9-1.4-4.5-1.6c-1.2-2.7-3.1-5-5.5-6.7l0.5-0.2c2.7-0.9,4.8-2.7,6.1-5.3
		c1.3-2.5,1.5-5.3,0.6-8c-0.6-1.9-1.8-3.6-3.3-4.8c0.1-2.8-0.4-5.7-1.5-8.3c-2.1-5.1-5.9-8.9-11-11.1c-1.9-0.8-3.8-1.3-5.8-1.5
		c0.1-0.2,0.2-0.4,0.2-0.6c0-0.1,0.1-0.2,0.1-0.3c2.1-1.4,3.6-3.5,4.2-5.9c0.7-2.7,0.4-5.5-1-7.9c-1.4-2.4-3.6-4.2-6.3-4.9
		c-0.9-0.3-1.9-0.4-2.8-0.4c-0.9,0-1.8,0.1-2.7,0.4c-0.5-1.6-1.2-3.2-2.2-4.7c-0.9-1.3-2-2.5-3.1-3.5c1-1.4,1.7-3,1.9-4.7
		c0.4-2.8-0.4-5.6-2.2-7.9c-1.8-2.3-4.3-3.7-7.1-3.9c-0.4,0-0.7-0.1-1.1-0.1c-0.9,0-1.7,0.1-2.5,0.3c0.4-1.1,0.7-2.3,0.7-3.5
		c0.1-2.8-1-5.5-2.9-7.5c-1.9-2-4.5-3.2-7.3-3.2c-0.1,0-0.2,0-0.2,0c-1.7,0-3.3,0.4-4.7,1.1c-0.7-0.9-1.5-1.8-2.4-2.6
		c-1.2-1.1-2.5-2-4-2.7c-0.5-0.3-1.1-0.5-1.6-0.7c-0.7-1.7-1.9-3.3-3.4-4.4c-1.7-1.3-3.7-2-5.8-2.1c-0.4-1.2-1.1-2.3-1.9-3.2
		c0-0.9-0.1-1.8-0.3-2.7c-0.7-2.8-2.4-5.1-4.8-6.6c-1.7-1.1-3.7-1.6-5.7-1.6c-0.8,0-1.7,0.1-2.5,0.3c-2.8,0.7-5.2,2.4-6.7,4.8
		c-0.5,0.8-0.9,1.7-1.2,2.6c-0.3,0.4-0.6,0.8-0.9,1.2l-5.5,8.9c-0.2,0-0.3,0-0.5,0c-0.8,0-1.6,0.1-2.4,0.3c-2.7,0.6-5,2.3-6.5,4.7
		c-1.5,2.4-2,5.2-1.3,7.9c0.6,2.7,2.3,5.1,4.7,6.6c1.9,1.2,3.9,1.9,6,2.2c0.8,0.1,1.6,0.2,2.3,0.2c1.2,0,2.5-0.1,3.6-0.4
		c0.8-0.2,1.7-0.5,2.5-0.8c0.6,0.5,1.1,1.1,1.8,1.5c0.9,0.7,1.9,1.3,2.9,1.7c0.5,0.7,1.2,1.3,1.9,1.8c1,0.7,2.1,1.3,3.2,1.6
		c0.9,1.5,2,2.9,3.4,4.2c1.2,1.1,2.5,2,4,2.7c1,0.5,1.9,0.8,2.9,1.1c0.6,2.5,2,4.8,4,7c1.4,1.5,3.2,2.5,5.1,2.9
		c0.1,2.1,0.9,4.1,2.2,5.7l1.4,1.7c1,1.2,2.2,2.2,3.6,2.9c0.5,1.9,1.3,3.7,2.4,5.4c1.7,2.5,4,4.5,6.6,5.7c-0.2,2.4,0.3,5.3,2.2,8.7
		c1.4,2.5,3.7,4.2,6.4,5c0.6,0.2,1.2,0.2,1.8,0.3c-1.4,4.5-1.2,9.2,0.6,13.7c0.8,2,2,3.9,3.4,5.5c-0.3,1.6-0.1,3.3,0.4,4.9
		c0.9,2.7,2.7,4.8,5.2,6.1c0.4,0.2,0.8,0.4,1.3,0.5c-1.9,3.6-2.4,7.5-1.5,11.5c0.7,3,2.1,5.7,4.1,7.9c-1.2,2.8-1.6,5.7-1.2,8.8
		c0.6,4.1,2.5,7.7,5.6,10.4c-0.4,0.3-0.8,0.7-1.2,1.1c-1.9,2.1-2.8,4.8-2.7,7.6c0.1,1.8,0.7,3.6,1.6,5.1c-0.9,2-1.3,4.3-1.3,6.8
		c0,1.4,0.3,2.7,0.8,4c-0.6,1.7-1,3.5-1,5.4c0,1.6,0.2,3.2,0.6,4.8c0.4,1.7,1.1,3.2,2,4.6c0.6,0.9,1.2,1.7,1.9,2.4
		c-3.5,2.2-5.9,5.9-6.6,10.8c-0.1,0.7-0.1,1.4-0.1,2.1c-0.2,0.5-0.4,1-0.5,1.5c-0.5,2.1-0.3,4.2,0.5,6.2c-1.5,1.4-2.6,3.3-3.1,5.4
		c-0.2,0.7-0.2,1.4-0.3,2.1c-0.5,0.8-0.9,1.7-1.2,2.6c-0.3,0.9-0.4,1.9-0.5,2.8c-0.4,0.5-0.7,1.1-0.9,1.8c-0.8,2-1,4.1-0.5,6.1
		c-0.6,0.4-1.2,0.9-1.7,1.5c-0.7,0.1-1.3,0.2-1.9,0.4c-1.6,0.4-3,1-4.4,1.8c-1.3,0.8-2.6,1.7-3.7,2.8c-1.1,1.1-2,2.3-2.8,3.6
		c-0.7,1.1-1.2,2.4-1.6,3.7c-0.4,1.2-0.6,2.5-0.7,3.8c-0.1,1.3,0,2.7,0.2,4c0.2,1.4,0.6,2.8,1.2,4c0.6,1.4,1.4,2.7,2.5,3.8
		c1.1,1.2,2.4,2.3,3.8,3.1l6.8,3.9c2.6,1.5,5.4,2.3,8.4,2.3c1.5,0,3-0.2,4.5-0.6c4.4-1.2,7.9-3.9,10.2-7.9c1.9-3.2,2.6-6.8,2.1-10.4
		c1.1-0.7,2.1-1.5,3.1-2.4c1.6-1.5,2.8-3.4,3.6-5.4c0.4-1,0.7-2.1,0.9-3.2c0.3-0.4,0.5-0.7,0.7-1.1c0.7-0.2,1.4-0.5,2-0.8
		c2.5-1.3,4.4-3.6,5.2-6.3c0.8-2.7,0.6-5.6-0.8-8.2c-0.4-0.8-1-1.6-1.6-2.2c0,0,0,0,0,0c1.7-0.1,3.3-0.7,4.7-1.6
		c2.4-1.5,4-3.8,4.6-6.5c0.5-2.1,0.3-4.2-0.5-6.2c1.2-1.5,2-3.2,2.2-5.2c0.4-2.8-0.3-5.5-2-7.8C399.4,226.8,396.9,225.4,394.2,225z"
		/>
	<g>
		<path class="st1" d="M284.3,51.5c-2.7-2.8,15.5,12.7,20.8,16.8c12.9,10,25.4,28.3,32.6,42.6c20,40,31.3,109.5,14.3,152
			c-30.9,77.3-123.4,90.8-193.6,83c-28.5-3.2-87.1-22.4-108.9-44.2c-50.4-50.4-51-108.2,2.1-161.3c14.8-14.8,24.2-16.5,41-29.1
			c14.9-11.2,23.8-36.1,38.4-50c32.6-31,77-29,107.5-22.9c10,2,23.3,6.6,32.6,11.2C274.6,51.5,288.5,55.7,284.3,51.5z"/>
		<path class="st2" d="M295,138.5c-4.5,5.9-17.3,36.5-10.4,35.6c32.3-4.3,23,41.2-12.6,57.5c-33.4,15.3-37.8-4.1-35.3-11.4
			c7.1-20.7-55,15-48.1,35.6c17.8,53.5-148.2-0.6-105.7-36.6c20.7-17.5,28.6-59.5,5.1-47.8c-68.6,34-48.1-17-49.8-15.2
			c-20.6,20.6-21.4,48.6-21.6,46.9c-0.1-0.8,0.9-3.1,0.2-2.5c-4.8,4-3.9,24.5-3.7,30.2c1.3,30.5,18.5,53.3,39.5,74.8
			c18,18.4,46.1,26.2,69,33.7c32.6,10.7,52.9,8.4,86.9,7.1c50-1.9,112.4-22.2,135.6-69.9c11.1-22.7,12.7-27.7,16.5-52.9
			c3.7-24.6-3.7-58.2-14.1-96.7c-3.3-12.2-9.6-18.6-16.4-29.3c-4.6-7.2-33.2-39.7-46.9-43.9c-3.6-1.1-22.7,28.8-4.2,28.1
			C293.3,81,311.5,116.8,295,138.5z"/>
		<path class="st3" d="M173.5,69.3c-8.7-6.5-40.5,16-22.8,36.4c15,17.3,36.4,5.3,36.4,5.3S182.7,76.1,173.5,69.3z"/>
		<path class="st4" d="M143.1,108"/>
		<path class="st5" d="M247.3,18.1c-1.7,1.7-1.5-3.7-1.3-3.8c1.5-1.5,7,3.9,7.8,4.9c7.6,9.4,23.7,21.6,26.7,33.6
			c1,3.9,3.1,7.6,4,11.4c3.1,12.2,2.1,27.6-0.9,39.7c-0.4,1.7-3.6,18.5-3.1,19c0.6,0.6,3.8,0.1,4.7,0.4c3.2,1.4,5.5,3.6,8.5,5.2
			c1.8,0.9,5.8,0.4,7.8,0.9c16.1,4,40,21.6,48.4,35.6c8.8,14.7,17,31.1,13.4,48.8c-0.2,1.1-2.6,13.9-3.1,14.1
			c-0.5,0.3-1.6-5.2-1.8-5.6c-1.3-3.1-2.6-6.3-3.8-9.4c-3.5-8.8-14.5-22-22.2-27.8c-18.7-14-59.6-11.2-77.2-4.7
			c-6.7,2.5-14.9,22.8-15.7,29.3c-0.6,4.7-2.2,8.3-3.3,12.9c-2.6,10.5-3,3-6.3,5.5c-1.4,1.1-1.8,6.3-2.2,8.1
			c-0.9,3.5,5.3,9.2,6,12.8c2.2,10.9,1.2,20.8,0,31.8c-0.6,5.6-1.4,18.3,0.9,23.7c1.2,2.8,2.1,5.7,3.4,8.3c0.2,0.5,2.9,3.8,1.8,3.8
			c-6.7,0-17.1-5.5-21.7-9.5c-11-9.5-10.5-7.5-26.1-43.1c-4.5-10.2-8.4-14.8-16.1-23.1c-13.9-15.1-25.3-16.8-47.1-22.8
			c-5-1.4-25.4-8.1-30.3-5.5c-3.2,1.8-12.9,3.2-15.4,5.7c-5.2,5.2-8.7,10.2-14.3,15.1c-4.3,3.7-8,7.5-13.4,8.7
			c-6.7,1.5-10.6-1.8-17.5-1.5c-1.6,0.1-13-4.3-14.6-3.9c-0.3,0.1,12.3-3.3,18.6-7.5c1.8-1.2,3.2-2.5,3.5-3.9c2.8-11.2,3.7-2.6,9-22
			c5.8-21.2,24.8-16.4,33.2-24.7c2.5-2.5,2.6-10.7,3.8-13.9c1.9-4.9,5.4-11.5,9.2-15.2c5-5,14.4-9.4,15.9-17
			c2.2-10.9-27-13.6-33.4-13c-5.9,0.5-10.8,6.4-15.9,9.2c-1.9,1-2.7,1.8-4.7,1.1c-3-1-0.5-10.4,1.5-12.4
			c9.4-9.4,15.3-20.1,28.9-23.9c9.7-2.7,17.3-3.3,29-1.3c11.7,2,10.1,5.3,14.5,5.3c4,0,6.2-5.3,11-4.5c4.2,0.7,10.2,6.9,14.3,6
			c10.1-2,7.9-13.3,9.2-21.1c2.1-12.4,5.7-24.7,13.4-34.9c2.6-3.5,3.5-7.7,6.7-11c5.4-5.4,10.4-9.3,20.5-11.7
			c0.9-0.2,1.5-0.2,0.8-0.8c-0.6-0.5-5.1-4-3.1-4.7c4.1-1.4,13.7,2.8,14.6,2.3c2.1-1.1-1.9-5.6-1.8-5.7c0.7-0.7,13.6,7.9,13.9,7.6
			c2.1-2.1-2.7-8.3-1.8-9.6c0.5-0.7,1.6,0.6,2.2,1.1c2.5,2.2,5.1,3.5,7.4,5.8C246.8,19.6,247.8,17.7,247.3,18.1z"/>
		<path class="st5" d="M263.1,105.2c0-0.9,0-1.7,0-2.6"/>
		<path class="st6" d="M282,122c-2.4,0.6,4.3-0.3,6.1,0c5,0.7,10.8,0.9,15.5,3.1c1.2,0.6,5.9,5.6,4.8,6.9c-1.2,1.5-7.8-3.1-9.8-1.8
			c-2.4,1.5-5.5,7.1-7.4,9.4c-5.1,6.3-9.2,15.6-10.6,23.7c-0.4,2,1,9.8,0.1,10.9c-2.9,3.5-10.5,2.4-14.4,3.4
			c-6.7,1.7-14,6.9-17.5,12.8c-2.2,3.8-4.7,7.4-7,11.2c-1.9,3.2-2.3,6.8-3.4,10.5c-1.1,3.6,0.1,14.3-2.1,17
			c-0.7,0.9-5.2,0.3-5.8-0.6c-1.2-1.9,1.5-4.6,0.9-6.7c-1.1-4.5-5.5-6.9-8.3-10.6c-3-3.9-8.8-9.3-12.5-12.2
			c-11.8-9.5-24-20.6-38.9-25.8c-9.3-3.2-18.6-6.6-28.1-9.1c-4.6-1.2-9.1-3.8-14-4.2c-9-0.8-18.2-0.7-27.2-1.2
			c-2.8-0.2-7.1,0.9-9.6,2.1c-0.7,0.3-2.1,1.1-2.1,1.1s4.1,0.1,3.6,1.3c-1.1,2.9-6.3,15.9-9.4,8.2c-1.1-2.6,0.5-5.8,1.6-8.2
			c1-2.3,0.9-5.5,2.5-7.5c5.3-6.5,9.8-10.3,17.1-15c2.2-1.4,5.5-3.5,8-4.1c0.4-0.1,2.4-0.3,2.6-0.7c1.5-3.9-0.1-9,1.5-13.1
			c3.2-8.5,11.3-15.7,16.9-22.6c0.8-1,9.9-8.9,11-8.2c3.6,2.3,8.1,5.6,11.6,8.4c1.8,1.4,3.6-1.1,4.9-0.5c2.5,1.2,4.9,5.8,6.8,7.9
			c3.1,3.4,7.1,6.1,10.6,8.9c3.2,2.6,7.5,3.4,11.2,4.8c10,3.7,19.3,6.4,29.8,9.1c10.6,2.7,35.8,3.4,45.9-1.2c4.6-2.1,5.9-2.6,10-5.3
			C278.6,122.6,284.3,121.4,282,122z"/>
		<path class="st7" d="M213.9,103c42.7,11.5,58.5-28.1,54-46c-0.5-2-1.9-14.6-21.3-18.9c-3.2-0.7-10.2-0.4-13.2-1.6
			c-3-1.2-5.5-2-8.1-5.1c0,3.4-0.7,3.8-1.7,3.8c-4.8,0.2-13-8.2-21.9-8.5c-10.2-0.4-20.7,17.5-22.9,24.2
			C174.7,63.2,171.2,91.5,213.9,103z"/>
		<path class="st8" d="M220.6,60.9c7.2,4.5,9.2,16.8,2.9,22.4c-6.3,5.6-17.6,0.7-22.4-2.1c-12-6.9-0.6-22.1,4.6-23.2
			c1.2-0.2,3.6-0.9,4.6-0.3"/>
		<path class="st9" d="M220.1,61.4c0.4-1.6-2.4-3.7-6.3-4.8c-3.9-1.1-7.4-0.6-7.8,1c-0.4,1.6,2.4,3.7,6.3,4.8
			C216.2,63.4,219.7,63,220.1,61.4z"/>
		<path class="st8" d="M235.8,42.9C214.4,75.8,258.2,91,259.2,90c8.3-8.1,10-24.5,9.6-28.8C268.7,60.3,235.9,42.8,235.8,42.9z"/>
		<path class="st8" d="M211.1,35.5c0.8,0-7.6,33.9-34.8,24c-1.5-0.6,1.4-8,1.7-9.5c2.9-14.4,7.7-10.3,18.9-11.1
			C201.3,38.5,209.4,35.5,211.1,35.5z"/>
		<path class="st10" d="M362.1,209.2c2.8,1.3,1.2,17.2-2.7,17.8c-0.8,0.1-0.7-1-0.8-1.3c-0.6-3.9-6.3-12.3-5.1-16
			C353.7,209.3,361.2,208.8,362.1,209.2z"/>
		<path class="st10" d="M59.9,128c2.5-0.5,1.5,3.8-0.5,5c-0.8,0.5-1.9,2.6-2,1.8C56.9,132.1,57.5,128.5,59.9,128z"/>
		<path class="st10" d="M232.4,298.4c1.5,3.2,4.5,9.1,6.3,12.9c0.3,0.6,2.1,7.7,1.8,8.1c-1,1.3-6.6-2.3-7.7-2.9
			c-7.1-3.5-12.8-5.7-18-11.9c-0.7-0.9-5.7-4.1-4.4-6c2.5-3.4,11.8-4.1,15.3-3.5c1.8,0.3,3.4,0.7,5.1,1.2
			C231.3,296.5,232.2,297.8,232.4,298.4z"/>
		<path class="st10" d="M42.5,229.2c5.9-0.4,16.5,11.2,12.3,12.8c-4.7,1.7-18.9-0.9-23.8-1.8c-1.7-0.3-4.6,1-5.1-0.7
			c-0.2-0.6,0.5-1.1,0.9-1.6c3.7-4.1,7.4-2.6,10.9-7.2C38.2,230,41.9,229.2,42.5,229.2z"/>
		<path class="st11" d="M236.3,226.4c0,4.6-4,2.3-6.5,2.3"/>
		<path class="st11" d="M137.6,97c0,0-59-29.2-81.1,37.7c-0.2,0.6-0.5,2.2,0,1.8c31.7-26.8,49.3-15.4,59.3-6.2"/>
		<path class="st11" d="M94,162.9c-1.9,3.1-4,15.1-12.6,20.1"/>
		<path class="st11" d="M358.7,235.4c17-46.3-15.6-93.2-57.7-104.5 M129,128.2c-7.3,1.5-37.6,17.3-44.4,35.9
			c-2.4,6.7,2.2,9.1,4.5,10.7 M45.3,225.6c-3.8,5.5-22.9,11.3-22.5,11.9c0.6,0.8,28.9,6.9,37,4.2c9.3-3.1,15.7-18,23.7-23.4
			c14.5-9.9,32.8-3.3,57.5,2.8 M82.2,182.5c-12.7,6.3-22.8,2-28.5,21c-3.1,10.4-3.4,16.3-9.5,23.1 M212.1,21
			c-21.1,3-37.4,22.7-41,58.3c-1.5,14.3-6,18.4-9.9,20.1 M280.1,121.3c20.5-66.2-13.7-87.7-14.1-88.7 M266.1,32.6
			c-6.3-5.8-10.9-15-19.2-17.7c0.1,2.2,0.1,2.2,0.2,4.3c-5.1-4.1-9.5-8.4-15.4-11.1c3.8,8.8,2.6,5.2,4.2,10.4
			c-7.3-2.4-9.3-7.8-17.6-8.5c3.3,2.3,4.6,4.1,6.8,7.6c-6.2-2.1-12.4-4.5-19-3.1c3.1,3,3.1,3,6.1,6 M231.1,223.1
			c-1.2,2.5-2.8,10.4-4,12.9 M195.9,227.9c14.1-7.1,30.1,3.1,35.5,16.6c3.5,8.9,3.2,22.6,2.4,31.9c-0.5,5.5-0.9,11.6-0.3,17.2
			c0.6,5.4,2.2,12.1,4.5,17.2c0.2,0.4,4.7,8.4,4.2,8.7c-2.3,1.6-7.7-2-9.6-3c-8-4-18.2-10.5-23.8-17.5
			c-13.2-16.5-15.3-39.9-28.6-54.8c-8.9-10-29.6-20.7-41.2-23.6 M266.4,177.1c-24.3,5.7-30.2,44-30,49.1 M359.4,233.9
			c0-9.3-13.6-76-92.3-56.9"/>
		<path class="st11" d="M109,89.7c17.2-28.8,36.8-46.1,76.2-52.9"/>
		<path class="st11" d="M281.3,51.5c11.8,4.9,30.1,19.1,45.9,41.8c14.9,21.4,27.5,50.4,30.2,86.3"/>
		<path class="st11" d="M358.9,231.4c-15.6,125.7-178.5,122.7-225.9,111C34.8,318.1-4.2,253.7,20.4,187.2
			c12.8-34.5,36.5-51.3,36.5-51.3"/>
		<path class="st11" d="M222.1,14.9c0-0.1,0-0.1,0-0.2"/>
		<path class="st11" d="M233,296.9c-6.5-4.6-18.2-2.3-23.9,1.9"/>
		<path class="st11" d="M56.4,241.8c-0.7-4.3-9.6-14.4-13.8-13.6"/>
		<path class="st11" d="M51,233.3c-1.2,0.2-7.9,1-14.3,1.9c-6.6,0.9-11.2,2.1-11.3,2.7"/>
		<path class="st11" d="M362.5,206.9c-3.5,3.1-6.5,1.9-10.6,1.6"/>
		<path class="st11" d="M358.2,209.7c1.3,7.2,3.2,15.2,1.1,22.2"/>
		<path class="st11" d="M60.9,124.3c-0.6,2.2,0.5,5.2,1.8,6.9"/>
		<path class="st11" d="M339.5,153.6c-0.6-9.6-4-23.9-10.1-39"/>
		<path class="st12" d="M336.1,189.1c-13.2,83.2-94.9,108.4-100.9,110.7"/>
		<path class="st11" d="M213.7,305.4c-74.6,18.5-144.5-24.9-169.3-50.8c-13.6-14.2-26.1-36.3-27.2-55.6"/>
		<path class="st13" d="M230.9,222.9c0-7.6-24.5-27.6-30.8-32c-7.2-5-14.7-9.4-22.4-13.6c-19.8-10.9-65.3-25.2-88-13.9"/>
		<path class="st13" d="M237.4,64c-8.7,4.4-23.8,5.1-33.9-1.7c-4.2-2.8-7.5-6.8-9.2-12.4"/>
		<path class="st13" d="M248.9,189.3c6.9-3.6,20.3-2.3,25-0.8"/>
		<path class="st13" d="M242.8,200.4c3.7-1.9,11.7-2.8,17.4,2"/>
		<path class="st13" d="M240,209.5c5.2,0,11.6,1.6,14.6,9.1"/>
		<path class="st13" d="M282.7,113.6c4.5-4.5,9.9-6.9,16-8.3"/>
		<path class="st13" d="M169.4,87.9c0-5.1-3.1-8.3-7.5-10.5"/>
		<path class="st13" d="M100.6,143.4c-3.4-7.7-8.9-11.8-17.4-13.5"/>
		<path class="st13" d="M95.1,148.4c0-2.6-6-5.9-8-6.9"/>
		<path class="st13" d="M270.6,127.3c-0.2,0.1-0.4,0.2-0.6,0.3c-5.6,2.8-13.5,3.3-19.6,4.1c-22.3,3.2-75.4-8.7-87-32.1"/>
		<path class="st13" d="M161.9,100c-3.1,0-15.6-8.2-16-8c-15.2,7.6-29.2,23.8-29.2,41.5"/>
		<path class="st13" d="M280.1,121.1c-0.6-0.5,30.3-0.5,27.3,11.1"/>
		<path class="st13" d="M301.8,129.3c-3.5-0.1-7.9,6.6-9.9,9.1c-8.3,10.3-11.6,22.8-11.8,35.7"/>
		<path class="st14" d="M268.3,59.3c-12.9-4.2-25-12.2-31.6-18.6"/>
		<path class="st15" d="M233.2,57.7c6.7-2.4,13.3,0.6,18.1,5.2"/>
		<path class="st15" d="M202.7,46.7c-3.6-3.5-11-5.3-15.8-3.5"/>
		<path class="st11" d="M240.7,317.5c-11.6-8.2-21.2-21.7-21.1-21.9"/>
		<path class="st16" d="M210.5,33.5c-14.7,5.1-28.6,1.3-29.2,1.2"/>
		<path class="st11" d="M151.4,225.3c-13.8,0.8-22.2,14.3-22.2,18.1"/>
		<path class="st11" d="M135.5,220.3c-9.3,0-21.2,6.1-27.3,22.2"/>
		<path class="st12" d="M151.3,94.9c-10.7,3.2-19.9,17-26.1,25.4"/>
		<path class="st12" d="M299.2,122.7c-9.2,1.4-17.8,17.4-22.6,23.9"/>
		<path class="st12" d="M273.2,174.1c-0.6-4.2-0.2-8.1,0.5-12.2"/>
		<polyline class="st12" points="188.3,120.8 187.9,121.3 187.5,122 187.2,122.5 186.4,124 		"/>
		<polyline class="st12" points="193.5,123.3 192.4,125 192.2,125.8 191.9,126.3 		"/>
		<path class="st12" d="M136.1,98.1c0.4,0.2,0.8,0.5,1.2,0.7"/>
		<line class="st12" x1="131.1" y1="103.6" x2="134.4" y2="105.8"/>
		<line class="st12" x1="140.3" y1="95.2" x2="143.7" y2="97.4"/>
		<line class="st12" x1="136.6" y1="98.6" x2="140" y2="100.7"/>
		<line class="st12" x1="123.6" y1="115.3" x2="126.9" y2="117.5"/>
		<line class="st12" x1="286.2" y1="132.7" x2="289.7" y2="135.1"/>
		<line class="st12" x1="282.6" y1="137.5" x2="286.5" y2="139.9"/>
		<path class="st17" d="M110.3,99.2c-0.8,1-1.9,2.5-2.7,3.6"/>
		<path class="st17" d="M117.6,100.3c-0.8,1-1.9,2.5-2.7,3.6"/>
		<path class="st17" d="M216.5,247.1c-0.8,1-1.9,2.5-2.7,3.6"/>
		<path class="st17" d="M303.9,142.5c-0.8,1-1.9,2.5-2.7,3.6"/>
		<path class="st17" d="M209.9,245.7c-0.8,1-1.9,2.5-2.7,3.6"/>
		<path class="st17" d="M262.4,113.1c-0.8,1-1.9,2.5-2.7,3.6"/>
		<path class="st17" d="M254.3,112.9c-0.8,1-1.9,2.5-2.7,3.6"/>
		<path class="st17" d="M244.3,112.2c-0.8,1-1.9,2.5-2.7,3.6"/>
		<path class="st18" d="M205.7,23.4c-0.2,0,101-8.6,63.6,105.1c0,0.1,10.6-6.7,10.6-6.7s16.6-54.6-5.6-82.7
			c-2.4-3.1-6.8-4.3-9.3-7.4c-4.2-5.2-8.7-10.7-13.8-14.9c-4.8-4-3.3,3-5,2.8c-1.1-0.1-11.4-11.5-13.2-10.8
			c-1.5,0.5,4.1,10,3.2,10.7c-0.2,0.1-0.5,0-0.7-0.1c-3.5-1.3-8.1-3.7-11.1-6.2c-1-0.8,2.3,3.5-0.7,4.2c-2.9,0.7-16.6-6-17-2.4
			C206.9,15.1,217.2,21.4,205.7,23.4z"/>
		<path class="st18" d="M195.1,228.2c1.1-1,11.8-9.6,15.9-13.2c17.6-15.5,36.6-42.5,13.5-62.8c-17.3-15.2-39.9-22.7-62.7-24.9
			c-9.8-1-18.3,3.4-27.7,2.2c-6.1-0.8-6-1.8-5.4-2.9c1.8-3.5,12.3-8.5,22-6.6c8.5,1.6,17.5,4.9,25.5,7.7c12.6,4.5,51.9,14,72.3,12.1
			c23.1-2.1,35.3-0.5,39.7,1.8c1.6,0.8,50.5,2.4,67.2,37.7c2.6,5.6,5.9,12.7,6.2,18.8c0.1,1.3,0.5,11.7-0.7,12.1
			c-1.6,0.6-5.8-3-7.4-1.8c-0.9,0.8,2.4,0.6,3.6,0.6c0.8,0,4.1-1.9,4.8-1.6c1.4,0.6-1.5,14.8-1.7,17c0,0.3,0.1,0.6-0.1,0.8
			c-0.2,0.1-5.4-11.2-6.5-12.9c-1.8-2.8-2.6-6.1-4.3-9c-3.2-5.3-8.8-9.9-13.4-14.1c-14.8-13.6-30.4-17-50.3-16.2
			c-7.1,0.3-18.4,2.9-25.2,6.1c-18.9,8.9-20.8,24.4-23.8,47.7c-0.7,5.3-4.7,0.4-7.2,2.5c-1.5,1.2-1.1,4.4-2.1,5.2
			c-0.5,0.4-5.6-3.7-6.3-4.3c-3.3-2.5-8.3-4.1-12.2-5.1C204.6,224.1,193,230.4,195.1,228.2z"/>
		<path class="st18" d="M217.4,228.9c7.6,0.8,10.3,10.1,10.6,16.4c0.7,19.8-6.2,24.8-15.8,37.1c-12.8,16.5,8.4,25.3,16.2,29.7
			c2.7,1.5,6.5,2.4,9.5,3.5c1.1,0.4,3.6,2.7,3.2,1.6c-0.8-2.2-3.3-4.2-4.3-6.7c-3.3-8.8-2.5-25.6-2.8-35c-0.4-14,3.4-22.4-5.3-35.2
			c-1.7-2.5-3.1-5.9-5.7-7.6"/>
		<path class="st18" d="M180.2,243.5c-4.9-3.1-6.2-15.3-46.6-30.9c-23.5-9.1-48.9-11-65,15.5c-2.9,4.7-8.7,12.1-14.1,14.2
			c-0.4,0.1-1,0-1.1,0.4c-0.1,0.7,3.4,0.4,3.6,0.4c2.5-0.6,5-2.9,6.9-4.5c7.9-6.4,14.8-21,25.6-23.4c20-4.5,41.4-0.1,59.6,8.9
			c5.1,2.5,9.4,5.9,14.1,8.8"/>
		<g>
			<g>
				<path class="st19" d="M164.7,121.1c6.5,2.7,12,4.7,17.1,6.8c4.2,1.7,4.1,4.6,2.4,6c-2.4,1.9-6.5,2-12,1.2
					c-0.3,0-0.6-0.1-1.1-0.2c3.2,2.5,0.5,5,1.6,11.6c-4-1.5-7.6-2.7-11.3-4c-0.5-3.8-0.4-6.2,0.3-8c0.3-1,0.2-1.8-2.8-2.3
					c-3.3,1.4-6.4,3.2-7.8,7.2c-3.3-1-6.3-1.8-9.4-2.5C146.8,127.6,157.9,128.6,164.7,121.1z M169.2,128.1c-1.5,0.9-3.2,1.5-5.2,2.2
					c2,0.5,3.9,1.1,5.9,1.6c1.8,0.4,3.5,0.4,4.6-0.1c1.2-0.5,1.2-1.3-0.3-1.9C172.9,129.3,171.1,128.8,169.2,128.1z"/>
				<path class="st19" d="M208.9,143.8c-2.9-1.1-5.5-2-8.3-3c0.7-1.2-0.1-2.4-2.2-3.2c-1.4-0.5-2.8-0.7-4.1-0.1
					c-0.7,0.6,0,1.1,0.9,1.6c1.7,0.9,3.5,1.9,5.2,2.9c1,0.6,1.9,1.2,2.8,1.8c5.6,4,1.5,8.8-5.6,10.7c-2.4,0.6-5,0.7-7.3,0.2
					c-3.7-0.8-7.2-2.7-10.3-5.2c-4.1-3.3-5.3-8.1-2.4-10.4c2.9,0.8,5.9,1.7,8.9,2.7c-0.1,0.4-0.3,0.7-0.4,1.1
					c-0.4,2,2.1,4.5,5.5,4.8c1.6,0.1,2.9-0.2,3.6-1.1c0.7-0.8,0.3-1.6-0.6-2.3c-0.8-0.6-1.7-1.1-2.6-1.6c-1.8-1.1-3.7-2-5.2-3
					c-2.9-1.9-2.9-3.2-0.7-4.4c2.4-1.3,5.9-2.6,9.9-2.2c3.7,0.3,7.1,1.5,10.1,3.8C209.4,139.1,210.2,141.7,208.9,143.8z"/>
			</g>
		</g>
	</g>
	<g>
		<path d="M301.6,30.5L294,42.6c-0.5,0.8-1.1,1.4-1.9,2c-0.7,0.5-1.5,0.9-2.4,1.1c-0.9,0.2-1.7,0.2-2.6,0.1
			c-0.9-0.1-1.7-0.4-2.5-0.9c-0.4-0.2-0.6-0.5-0.7-0.9c-0.1-0.4,0-0.8,0.2-1.1c0.2-0.4,0.5-0.6,0.9-0.7c0.4-0.1,0.8,0,1.1,0.2
			c0.5,0.3,0.9,0.5,1.4,0.5c0.5,0.1,1,0.1,1.5-0.1c0.5-0.1,0.9-0.3,1.4-0.6c0.4-0.3,0.8-0.7,1.1-1.1l7.5-12.2
			c0.2-0.4,0.5-0.6,0.9-0.7c0.4-0.1,0.8,0,1.1,0.2c0.3,0.2,0.6,0.5,0.7,0.9C301.9,29.7,301.8,30.1,301.6,30.5z M304.1,27
			c-0.3,0.4-0.6,0.7-1.1,0.8c-0.5,0.1-0.9,0-1.3-0.2c-0.4-0.3-0.7-0.6-0.8-1.1c-0.1-0.5,0-0.9,0.2-1.3s0.6-0.7,1.1-0.8
			c0.5-0.1,0.9,0,1.3,0.2c0.4,0.3,0.7,0.6,0.8,1.1C304.4,26.1,304.3,26.6,304.1,27z"/>
		<path d="M306.2,51.5c-0.3-0.3-0.5-0.6-0.6-1s0-0.8,0.3-1.1c-0.8,0-1.6-0.1-2.3-0.3s-1.4-0.6-2.1-1.1c-0.8-0.6-1.5-1.3-1.9-2.2
			s-0.8-1.7-0.9-2.7c-0.1-0.9-0.1-1.9,0.1-2.8c0.2-1,0.6-1.8,1.2-2.6l4.2-5.6c0.2-0.3,0.6-0.5,1-0.6c0.4-0.1,0.8,0,1.1,0.3
			c0.3,0.2,0.5,0.6,0.6,1c0.1,0.4,0,0.8-0.3,1.1l-4.2,5.6c-0.4,0.5-0.6,1-0.8,1.6c-0.1,0.6-0.2,1.1-0.1,1.7c0.1,0.6,0.3,1.1,0.6,1.6
			c0.3,0.5,0.7,0.9,1.2,1.3c0.5,0.4,1,0.6,1.6,0.7s1.1,0.2,1.7,0.1c0.6-0.1,1.1-0.3,1.6-0.6c0.5-0.3,0.9-0.7,1.3-1.2l4.2-5.6
			c0.2-0.3,0.6-0.5,1-0.6c0.4-0.1,0.8,0,1.1,0.3c0.3,0.2,0.5,0.6,0.6,1c0.1,0.4,0,0.8-0.3,1.1l-7.7,10.4c-0.2,0.3-0.6,0.5-1,0.6
			C306.9,51.8,306.5,51.7,306.2,51.5z"/>
		<path d="M315.9,49.8c-0.4-0.8-0.7-1.5-0.7-2l0,0c0-1,0.3-1.9,0.9-2.6c0.5-0.5,1.1-0.9,1.7-1.1c0.7-0.2,1.4-0.2,2.1-0.1
			c0.7,0.1,1.5,0.3,2.2,0.7c0.7,0.4,1.4,0.8,1.9,1.3c1.8,1.6,2.6,3.6,2.6,6.2c0,0.3-0.1,0.6-0.4,0.9c-0.3,0.3-0.6,0.5-1,0.5
			c-0.4,0-0.7-0.1-1.1-0.4c-0.2-0.2-0.4-0.4-0.4-0.7c0-0.3-0.1-0.5-0.1-0.8c-0.1-1.4-0.6-2.5-1.6-3.4c-1-0.9-2.1-1.3-3.3-1.3
			c-0.2,0-0.4,0.1-0.6,0.3c-0.2,0.2-0.2,0.4-0.1,0.6l3.5,6.1c0.4,0.9,0.7,1.6,0.7,2l0,0c0,1-0.3,1.9-0.9,2.6
			c-0.5,0.5-1.1,0.9-1.7,1.1s-1.4,0.2-2.1,0.1c-0.7-0.1-1.5-0.3-2.2-0.7c-0.7-0.4-1.4-0.8-1.9-1.3c-1.8-1.6-2.6-3.6-2.6-6.2
			c0-0.3,0.2-0.6,0.4-0.9c0.3-0.3,0.6-0.5,1-0.5c0.4,0,0.7,0.1,1.1,0.4c0.2,0.2,0.4,0.5,0.4,0.7c0,0.3,0.1,0.5,0.1,0.8
			c0.1,1.4,0.6,2.5,1.7,3.4c1,0.9,2.1,1.3,3.3,1.2c0.2,0,0.4-0.1,0.5-0.3c0.2-0.2,0.2-0.4,0.1-0.7L315.9,49.8z"/>
		<path d="M331.9,53.4l0.5,0.5l3.8-3.7c0.3-0.3,0.6-0.4,1.1-0.4c0.4,0,0.8,0.2,1,0.5c0.3,0.3,0.4,0.6,0.4,1.1c0,0.4-0.2,0.8-0.5,1
			l-3.8,3.7l1.2,1.3c0.3,0.3,0.4,0.6,0.4,1s-0.2,0.7-0.5,1c-0.3,0.3-0.7,0.4-1.1,0.4c-0.4,0-0.7-0.2-1-0.4l-1.2-1.3l-5.2,4.9
			c-1.4,1.3-1.4,2.6-0.1,4c0.3,0.3,0.4,0.6,0.4,1c0,0.4-0.2,0.7-0.5,1c-0.3,0.3-0.7,0.4-1.1,0.4s-0.7-0.2-1-0.4
			c-2.7-2.8-2.6-5.5,0.2-8.2l5.2-4.9l-0.5-0.5c-0.3-0.3-0.4-0.6-0.4-1c0-0.4,0.2-0.8,0.5-1c0.3-0.3,0.6-0.4,1.1-0.4
			C331.3,53,331.6,53.1,331.9,53.4z"/>
		<path d="M333.1,76.3l15.5-12.2c0.3-0.3,0.7-0.4,1.1-0.3s0.7,0.2,1,0.6c0.3,0.3,0.4,0.7,0.3,1.1c-0.1,0.4-0.2,0.7-0.6,1L336,77.7
			l0.4,0.5c0.2,0.3,0.4,0.7,0.3,1.1c0,0.4-0.2,0.7-0.6,1c-0.3,0.3-0.7,0.4-1.1,0.3c-0.4,0-0.7-0.2-1-0.6l-1.3-1.7
			c-0.3-0.3-0.4-0.7-0.3-1.1C332.6,76.9,332.7,76.6,333.1,76.3z"/>
		<path d="M346.5,89.8c0.2,0.4,0.3,0.7,0.2,1.1s-0.3,0.7-0.6,0.9c-0.3,0.2-0.7,0.3-1.1,0.2c-1.9-0.5-3.4-1.6-4.5-3.2
			c-1.2-1.8-1.6-3.8-1.2-5.9c0.4-2.2,1.5-3.8,3.3-5.1c1.8-1.2,3.8-1.6,5.9-1.2c2.2,0.4,3.8,1.5,5.1,3.3c1.2,1.8,1.6,3.8,1.2,5.9
			c-0.2,1.1-0.6,2-1.1,2.9c-0.6,0.8-1.3,1.6-2.2,2.2c-0.4,0.2-0.7,0.3-1.1,0.2c-0.4-0.1-0.7-0.3-0.9-0.6l-6.3-9.3
			c-0.3,0.4-0.6,0.9-0.8,1.4c-0.2,0.5-0.3,1-0.3,1.5c0,0.5,0,1,0.2,1.5c0.1,0.5,0.4,1,0.7,1.4c0.4,0.5,0.8,0.9,1.2,1.3
			c0.4,0.3,1,0.6,1.5,0.7C346,89.3,346.3,89.5,346.5,89.8z M351,87.5c0.3-0.4,0.6-0.9,0.8-1.4c0.2-0.5,0.3-1,0.3-1.5
			c0-0.5,0-1-0.2-1.5c-0.1-0.5-0.4-1-0.7-1.4s-0.7-0.8-1.1-1.2s-0.9-0.6-1.4-0.8c-0.5-0.2-1-0.3-1.5-0.3c-0.5,0-1.1,0.1-1.6,0.2
			L351,87.5z"/>
		<path d="M360.3,90.5l0.3,0.6l4.6-2.6c0.4-0.2,0.7-0.2,1.1-0.1c0.4,0.1,0.7,0.3,0.9,0.7c0.2,0.4,0.2,0.7,0.1,1.1s-0.3,0.7-0.7,0.9
			l-4.6,2.6l0.9,1.5c0.2,0.4,0.2,0.7,0.1,1.1c-0.1,0.4-0.3,0.7-0.7,0.9c-0.4,0.2-0.7,0.3-1.1,0.2c-0.4-0.1-0.7-0.3-0.9-0.7l-0.9-1.5
			l-6.2,3.5c-1.6,0.9-2,2.2-1.1,3.9c0.2,0.4,0.2,0.7,0.1,1.1c-0.1,0.4-0.3,0.7-0.7,0.9c-0.4,0.2-0.7,0.3-1.1,0.2
			c-0.4-0.1-0.7-0.3-0.9-0.7c-1.9-3.4-1.2-6,2.2-7.9l6.2-3.5l-0.3-0.6c-0.2-0.3-0.2-0.7-0.1-1.1s0.3-0.7,0.7-0.9
			c0.4-0.2,0.7-0.2,1.1-0.1C359.8,89.9,360.1,90.1,360.3,90.5z"/>
		<path d="M366.1,127.6c0.1,0.2,0.1,0.4,0.1,0.6c0,0.2,0,0.4-0.1,0.6c-0.1,0.2-0.2,0.3-0.3,0.5c-0.1,0.1-0.3,0.3-0.5,0.3
			c-0.4,0.1-0.8,0.1-1.2,0c-2.4-1.3-4-3.2-5-5.6c-1.2-2.9-1.2-5.8,0-8.7c1.2-2.9,3.3-4.9,6.2-6.1c2.9-1.2,5.8-1.2,8.7,0
			c2.9,1.2,4.9,3.3,6.1,6.2c1,2.5,1.1,5.1,0.3,7.7c-0.1,0.3-0.4,0.6-0.8,0.8c-0.2,0.1-0.4,0.1-0.6,0.1c-0.2,0-0.4,0-0.6-0.1
			c-0.2-0.1-0.3-0.2-0.5-0.3c-0.1-0.1-0.2-0.3-0.3-0.5c-0.1-0.3-0.1-0.7,0-1.1c0.3-0.9,0.4-1.8,0.3-2.7c0-0.9-0.3-1.8-0.6-2.7
			c-0.9-2.1-2.4-3.6-4.5-4.5c-2.1-0.9-4.2-0.9-6.4,0c-2.1,0.9-3.7,2.4-4.5,4.5c-0.9,2.1-0.9,4.2,0,6.4c0.7,1.8,2,3.2,3.7,4.1
			C365.7,127,365.9,127.3,366.1,127.6z"/>
		<path d="M364.9,135.9c-0.4,0.1-0.8,0.1-1.1-0.1c-0.4-0.2-0.6-0.5-0.7-0.9c-0.1-0.4-0.1-0.8,0.1-1.1c0.2-0.4,0.5-0.6,0.9-0.7
			l18.7-6.1c0.4-0.1,0.8-0.1,1.1,0.1s0.6,0.5,0.7,0.9c0.1,0.4,0.1,0.8-0.1,1.1c-0.2,0.4-0.5,0.6-0.9,0.7L364.9,135.9z"/>
		<path d="M383.7,150.5c0.4,1.8,0.2,3.6-0.6,5.2l6.9-1.5c0.4-0.1,0.8,0,1.1,0.2s0.5,0.5,0.6,0.9c0.1,0.4,0,0.8-0.2,1.1
			c-0.2,0.3-0.5,0.6-0.9,0.6l-12.9,2.9c-2.2,0.5-4.1,0.1-6-1.1c-1.8-1.2-3-2.9-3.5-5c-0.5-2.1-0.1-4.1,1.1-6c1.2-1.8,2.8-3,5-3.5
			s4.1-0.1,6,1.1C382,146.7,383.2,148.3,383.7,150.5z M377,157c0.7-0.1,1.3-0.4,1.8-0.8s1-0.8,1.3-1.4c0.3-0.5,0.6-1.1,0.7-1.8
			c0.1-0.6,0.1-1.3,0-2c-0.2-0.7-0.4-1.3-0.8-1.8c-0.4-0.5-0.8-1-1.4-1.3c-0.5-0.3-1.1-0.6-1.8-0.7c-0.6-0.1-1.3-0.1-2,0
			c-0.7,0.1-1.3,0.4-1.8,0.8c-0.5,0.4-1,0.8-1.3,1.4c-0.3,0.5-0.6,1.1-0.7,1.8c-0.1,0.6-0.1,1.3,0,2c0.1,0.7,0.4,1.3,0.8,1.8
			c0.4,0.5,0.9,1,1.4,1.3s1.1,0.6,1.8,0.7C375.7,157.2,376.3,157.2,377,157z"/>
		<path d="M380.2,178.1c-2.2,0.3-4.1-0.2-5.9-1.5c-1.7-1.3-2.8-3.1-3.1-5.2c-0.3-2.2,0.2-4.1,1.5-5.9c1.3-1.7,3.1-2.8,5.2-3.1
			s4.1,0.2,5.9,1.5c1.7,1.3,2.8,3.1,3.1,5.2c0.3,2.2-0.2,4.1-1.5,5.9c-0.7,0.9-1.4,1.6-2.3,2.1S381.3,178,380.2,178.1z M384.1,169.6
			c-0.1-0.7-0.3-1.3-0.7-1.9s-0.8-1-1.3-1.4c-0.5-0.4-1.1-0.7-1.7-0.8c-0.6-0.2-1.3-0.2-2-0.1s-1.3,0.3-1.9,0.6
			c-0.6,0.3-1,0.8-1.4,1.3c-0.4,0.5-0.7,1.1-0.8,1.7c-0.2,0.6-0.2,1.3-0.1,2c0.1,0.7,0.3,1.3,0.7,1.9s0.8,1,1.3,1.4
			c0.5,0.4,1.1,0.7,1.7,0.8c0.6,0.2,1.3,0.2,2,0.1c0.7-0.1,1.3-0.3,1.8-0.6c0.6-0.3,1-0.8,1.4-1.3s0.7-1.1,0.9-1.7
			C384.1,170.9,384.2,170.3,384.1,169.6z"/>
		<path d="M374.5,189.6l12.9-0.7c0.4,0,0.8,0.1,1.1,0.4c0.3,0.3,0.5,0.6,0.5,1c0,0.4-0.1,0.8-0.4,1.1c-0.3,0.3-0.6,0.5-1,0.5
			l-12.9,0.7c-0.4,0-0.8-0.1-1.1-0.4c-0.3-0.3-0.5-0.6-0.5-1s0.1-0.8,0.4-1.1C373.8,189.8,374.1,189.7,374.5,189.6z M391.9,192
			c-0.5,0-0.9-0.1-1.3-0.4c-0.4-0.3-0.5-0.7-0.6-1.2c0-0.5,0.1-0.9,0.4-1.3s0.7-0.5,1.2-0.6s0.9,0.1,1.3,0.4s0.5,0.7,0.6,1.2
			c0,0.5-0.1,0.9-0.4,1.3S392.3,191.9,391.9,192z"/>
		<path d="M389.2,196.7l0,0.7l5.3-0.1c0.4,0,0.8,0.1,1,0.4s0.4,0.6,0.4,1c0,0.4-0.1,0.8-0.4,1s-0.6,0.4-1,0.4l-5.3,0.1l0,1.8
			c0,0.4-0.1,0.8-0.4,1c-0.3,0.3-0.6,0.4-1,0.4c-0.4,0-0.8-0.1-1.1-0.4c-0.3-0.3-0.4-0.6-0.4-1l0-1.8l-7.1,0.1c-1.9,0-2.8,1-2.8,2.9
			c0,0.4-0.1,0.8-0.4,1c-0.3,0.3-0.6,0.4-1,0.4c-0.4,0-0.8-0.1-1.1-0.4c-0.3-0.3-0.4-0.6-0.4-1c-0.1-3.9,1.8-5.8,5.7-5.9l7.1-0.1
			l0-0.7c0-0.4,0.1-0.7,0.4-1c0.3-0.3,0.6-0.4,1-0.4c0.4,0,0.8,0.1,1,0.4S389.2,196.3,389.2,196.7z"/>
		<path d="M380.9,209.7c0.4-0.9,0.7-1.5,1.1-1.8v0c0.7-0.7,1.6-1,2.6-1c0.7,0,1.4,0.2,1.9,0.6s1.1,0.9,1.4,1.5
			c0.4,0.6,0.7,1.3,0.9,2.1c0.2,0.8,0.3,1.5,0.3,2.3c0,2.4-1,4.4-3,6c-0.2,0.2-0.5,0.3-0.9,0.3c-0.4,0-0.8-0.2-1-0.4
			c-0.3-0.3-0.4-0.6-0.4-1.1c0-0.3,0.1-0.6,0.3-0.8s0.4-0.4,0.6-0.6c1-0.9,1.5-2.1,1.5-3.5c0-1.4-0.4-2.5-1.2-3.3
			c-0.1-0.2-0.4-0.2-0.6-0.2c-0.3,0-0.4,0.1-0.5,0.4l-2.3,6.6c-0.4,0.9-0.7,1.5-1.1,1.8v0c-0.7,0.7-1.6,1-2.6,1
			c-0.7,0-1.4-0.2-1.9-0.6c-0.6-0.4-1.1-0.9-1.4-1.5c-0.4-0.6-0.7-1.3-0.9-2.1c-0.2-0.8-0.3-1.5-0.3-2.3c0-2.4,1-4.4,2.9-6
			c0.3-0.2,0.6-0.3,0.9-0.3c0.4,0,0.8,0.2,1,0.4c0.3,0.3,0.4,0.6,0.4,1.1c0,0.3-0.1,0.6-0.3,0.8c-0.2,0.2-0.4,0.4-0.5,0.6
			c-1,0.9-1.5,2.1-1.5,3.5c0,1.3,0.4,2.4,1.2,3.3c0.2,0.1,0.3,0.2,0.6,0.2c0.3,0,0.5-0.1,0.6-0.4L380.9,209.7z"/>
		<path d="M387.8,232.5l-0.1,0.7l5.3,0.7c0.4,0.1,0.7,0.2,1,0.6c0.2,0.3,0.3,0.7,0.3,1.1c-0.1,0.4-0.2,0.7-0.6,1
			c-0.3,0.2-0.7,0.3-1.1,0.3l-5.3-0.7l-0.2,1.8c-0.1,0.4-0.2,0.7-0.6,1c-0.3,0.2-0.7,0.3-1.1,0.3c-0.4-0.1-0.7-0.2-1-0.6
			s-0.3-0.7-0.3-1.1l0.2-1.8l-7.1-1c-1.9-0.3-2.9,0.5-3.2,2.4c-0.1,0.4-0.2,0.7-0.6,1c-0.3,0.2-0.7,0.3-1.1,0.3
			c-0.4-0.1-0.7-0.2-1-0.6s-0.3-0.7-0.3-1.1c0.5-3.8,2.7-5.5,6.5-4.9l7.1,1l0.1-0.7c0.1-0.4,0.2-0.7,0.6-1c0.3-0.2,0.7-0.3,1.1-0.3
			c0.4,0.1,0.7,0.2,1,0.6C387.7,231.8,387.8,232.1,387.8,232.5z"/>
		<path d="M371.6,243c-0.4-0.1-0.7-0.3-0.9-0.7c-0.2-0.3-0.3-0.7-0.2-1.1c0.1-0.4,0.3-0.7,0.7-0.9c0.3-0.2,0.7-0.3,1.1-0.2l19.2,4.4
			c0.4,0.1,0.7,0.3,0.9,0.7c0.2,0.3,0.3,0.7,0.2,1.1c-0.1,0.4-0.3,0.7-0.7,0.9c-0.3,0.2-0.7,0.3-1.1,0.2l-6.6-1.5
			c0.7,1.4,0.8,3,0.4,4.6c-0.2,1-0.6,1.8-1.2,2.6c-0.6,0.8-1.3,1.4-2.1,2s-1.7,0.9-2.6,1.1c-1,0.2-1.9,0.2-2.9-0.1l-6.8-1.5
			c-0.4-0.1-0.7-0.3-0.9-0.7c-0.2-0.3-0.3-0.7-0.2-1.1c0.1-0.4,0.3-0.7,0.7-0.9c0.3-0.2,0.7-0.3,1.1-0.2l6.8,1.5
			c0.6,0.1,1.2,0.1,1.7,0c0.6-0.1,1.1-0.3,1.6-0.6c0.5-0.3,0.9-0.7,1.2-1.2c0.3-0.5,0.6-1,0.7-1.6c0.1-0.6,0.2-1.2,0-1.8
			s-0.3-1.1-0.6-1.6c-0.3-0.5-0.7-0.9-1.2-1.2c-0.5-0.3-1-0.6-1.6-0.7L371.6,243z"/>
		<path d="M368,257.1l12.3,3.8c0.4,0.1,0.7,0.4,0.9,0.7s0.2,0.7,0.1,1.1c-0.1,0.4-0.4,0.7-0.7,0.9c-0.4,0.2-0.7,0.2-1.1,0.1
			l-12.3-3.8c-0.4-0.1-0.7-0.4-0.9-0.7c-0.2-0.4-0.2-0.7-0.1-1.1c0.1-0.4,0.4-0.7,0.7-0.9C367.3,257,367.6,256.9,368,257.1z
			 M383.5,265.2c-0.5-0.1-0.8-0.4-1-0.9c-0.2-0.4-0.3-0.9-0.1-1.3s0.4-0.8,0.9-1s0.9-0.3,1.3-0.1c0.5,0.1,0.8,0.4,1,0.9
			c0.2,0.4,0.3,0.9,0.1,1.3c-0.1,0.5-0.4,0.8-0.9,1C384.4,265.3,384,265.4,383.5,265.2z"/>
		<path d="M377.3,270.1c0.4,1.5,0.3,3.1-0.3,4.7c-0.4,0.9-0.9,1.7-1.6,2.4c-0.7,0.7-1.5,1.2-2.3,1.6c-0.9,0.4-1.8,0.6-2.8,0.6
			s-1.9-0.1-2.9-0.5l-6.5-2.6c-0.4-0.2-0.7-0.4-0.8-0.8c-0.2-0.4-0.2-0.8,0-1.1c0.2-0.4,0.4-0.7,0.8-0.8s0.8-0.2,1.1,0l6.5,2.6
			c0.6,0.2,1.1,0.3,1.7,0.3c0.6,0,1.1-0.1,1.7-0.4c0.5-0.2,1-0.5,1.4-0.9c0.4-0.4,0.7-0.9,1-1.5c0.2-0.6,0.3-1.1,0.3-1.7
			s-0.1-1.1-0.4-1.7c-0.2-0.5-0.5-1-1-1.4c-0.4-0.4-0.9-0.7-1.5-1l-6.5-2.6c-0.4-0.2-0.7-0.4-0.8-0.8c-0.2-0.4-0.2-0.8,0-1.1
			c0.2-0.4,0.4-0.7,0.8-0.8s0.8-0.2,1.1,0l11.9,4.8c0.4,0.2,0.6,0.4,0.8,0.8c0.2,0.4,0.2,0.8,0,1.1c-0.2,0.4-0.4,0.6-0.8,0.8
			C378.1,270.3,377.7,270.3,377.3,270.1z"/>
		<path d="M354,289.1c-0.3-1.8,0-3.5,1-5.2c1.1-1.9,2.7-3.1,4.8-3.7c2.1-0.6,4.1-0.3,6,0.8c1.9,1.1,3.1,2.7,3.7,4.8
			c0.6,2.1,0.3,4.1-0.8,6c-1.1,1.9-2.7,3.1-4.8,3.7c-2.1,0.6-4.1,0.3-6-0.8l-6.8-3.9c-0.6-0.3-1.1-0.8-1.5-1.2c-0.4-0.5-0.8-1-1-1.6
			c-0.3-0.6-0.4-1.2-0.5-1.8c-0.1-0.6-0.1-1.3-0.1-1.9c0-0.6,0.2-1.3,0.3-1.9c0.2-0.6,0.4-1.2,0.8-1.8c0.4-0.7,0.8-1.2,1.4-1.8
			c0.5-0.5,1.1-1,1.8-1.4c0.7-0.4,1.4-0.7,2.1-0.9c0.8-0.2,1.5-0.3,2.3-0.3c0.3,0,0.5,0,0.8,0.2c0.4,0.2,0.6,0.5,0.7,0.9
			c0.1,0.4,0,0.8-0.2,1.1c-0.1,0.2-0.3,0.4-0.5,0.5c-0.2,0.1-0.6,0.2-1.1,0.2c-0.6,0.1-1,0.1-1.3,0.2c-1.5,0.4-2.6,1.3-3.3,2.6
			c-0.8,1.3-0.9,2.7-0.6,4.2c0.4,1,0.9,1.6,1.5,2L354,289.1z M366.1,290.4c0.3-0.6,0.6-1.2,0.6-1.9s0-1.3-0.1-1.9s-0.4-1.2-0.8-1.7
			c-0.4-0.5-0.9-1-1.5-1.3c-0.6-0.3-1.2-0.5-1.9-0.6c-0.7-0.1-1.3,0-1.9,0.1c-0.6,0.2-1.2,0.4-1.7,0.8c-0.5,0.4-1,0.9-1.3,1.5
			c-0.3,0.6-0.6,1.2-0.6,1.9s0,1.3,0.1,1.9c0.2,0.6,0.4,1.2,0.8,1.7c0.4,0.5,0.9,1,1.5,1.3c0.6,0.3,1.2,0.5,1.9,0.6
			c0.7,0.1,1.3,0,1.9-0.1c0.6-0.2,1.2-0.4,1.7-0.8C365.4,291.5,365.8,291,366.1,290.4z"/>
	</g>
</g>
</svg>
